<svg version="1" xmlns="http://www.w3.org/2000/svg" width="400" height="400" viewBox="0 0 300.000000 300.000000"><path d="M287.6 5.7c-2.8 4.3-4.7 10.8-7 23.8-2.1 11.8-2.4 13.8-3.1 21.5-.7 7.6-1.1 11.4-2 19.5-1.9 18.2-2.7 45.1-1.5 53 .5 3.3 1.2 8.9 1.5 12.5 1.5 17.1 4.2 26.7 8.6 30.5 2.9 2.3 3 2.9 3.1 10.2.1 4.3-.1 12.1-.5 17.3-.7 9.5-1.8 57.9-2.1 84.5-.1 11.9.2 14.5 1.7 16.8 2.3 3.5 6.5 3.6 10.5.2l2.9-2.4-.4-24.8c-.2-13.6-.6-30.9-.8-38.3-.3-7.4-.8-60.8-1.1-118.5C296.8-.8 296.9 2 292 2c-1.2 0-3 1.5-4.4 3.7zM4.9 29.7c0 1.6-.2 3.5-.3 4.3-.2.8-.7 5.1-1.1 9.4-.4 4.3-.9 8.8-1.1 10-.2 1.2-.7 8.4-1 16.1-1.5 31.6-1.3 32.4 6.8 43l6.2 7.9-.1 8.6c0 8.7-1 49.5-1.9 74.5-.4 11.5-1.2 53.3-1.7 83.3-.1 7.6 2.1 10.6 7.9 10.6 6.9 0 7.1-1.1 6.8-27.1-.1-12.5-.5-33.4-.9-46.3-.3-12.9-.8-30-1-38-.2-8-.7-19.5-1.1-25.5-1-14.7-1.1-36.3-.1-39.9.4-1.5 3.1-5.3 5.9-8.2 7.1-7.6 7.7-10.4 7.3-34.4-.2-10.7-.6-20.4-.8-21.5-.7-3-3-22.4-3-25.3 0-.6-.3-.9-.6-.6-.7.7-.9 5.2-1 28.5-.1 13.5-.4 18-1.5 19.5-1.3 1.7-1.6 1.7-3 .4-2.1-2-2.5-6.8-2.6-31.4-.1-13.5-.5-20.5-1.1-19.5-.5.8-.8 11.7-.7 25.6.3 25.8 0 27.5-4.1 25.4-1.2-.7-2.1-1.9-2.1-2.9-.2-32.1-.5-43.2-1.2-43.2-.4 0-.8 9.7-.8 21.6C13 76 12.5 80 9.5 80c-3.5 0-4-3.9-3.8-28.8.1-13.3 0-24.2-.3-24.2-.2 0-.4 1.2-.5 2.7z"/><path d="M13 28c0 .5.5 1 1.1 1 .5 0 .7-.5.4-1-.3-.6-.8-1-1.1-1-.2 0-.4.4-.4 1zM130.3 66.6c-22.1 4.6-39.4 13.7-54.6 28.3-16.1 15.5-25.3 31.8-31.2 55.6-3.2 12.7-3.8 21.5-1.9 27 2 6 6.2 7.3 10.9 3.2 2.1-1.9 2.6-3.3 3.1-9.7 2.6-32.8 17.3-58 44.1-75.7 11.4-7.4 20.1-11 36.5-15 5.4-1.2 24.6-1.2 31.4.2 20.9 4 39.4 13.8 52.8 27.9 19.8 20.8 31.1 56.8 26.1 83.6-1.2 6.9-5.9 19.7-10.2 28.2-3.9 7.7-12.4 19.7-14.6 20.6-.4.2-1.3 1.6-2.1 3-2 4.1-.3 9 3.7 10.7 5.7 2.4 10.1-.9 18.3-13.7 10.4-16.1 17.2-33.2 19.8-49.4 1.5-9.8 1.4-29.6-.3-37.4-4.7-21.2-16.6-42.7-32-58.1-26-26.1-63.4-37-99.8-29.3z"/><path d="M136 97.4c-10.5 3.3-14 4.9-22 10-32.9 21.3-42.9 61.9-24.1 98.1 7.5 14.5 21.6 28.3 34.8 34 2.1.9 4.5 2 5.3 2.4 3.8 2 16.1 4.3 23 4.4 26 .3 49.5-11.2 64.2-31.4 7.9-10.8 14.8-29.8 14.8-40.8 0-6.2-3-10.1-7.8-10.1-4.4 0-6.1 2.9-8.3 13.6-3.4 17-11.8 31.5-22.9 39.7-15.5 11.4-38.6 15.2-56.5 9.4-23.4-7.7-38.1-28.1-39.3-54.7-1.2-29.1 13.9-50.1 42.5-59.2 8.9-2.8 10.5-3.7 11.7-6.2 1.8-3.7.8-6.5-3.4-9.4-3.9-2.6-2.7-2.6-12 .2z"/><path d="M145.7 133c-18.6 4.6-31.2 23.8-28 42.5 3.2 18.8 18.9 33.6 35.5 33.6 11.6 0 23.4-5.2 31.1-13.5 1.6-1.7 4.2-5.8 5.8-9.1 10.6-22.1-.6-47.2-23.8-53-8.9-2.2-13.5-2.3-20.6-.5z"/></svg>