<?xml version="1.0" encoding="UTF-8" standalone="no"?>
<!-- Created with Inkscape (http://www.inkscape.org/) -->

<svg
   xmlns:dc="http://purl.org/dc/elements/1.1/"
   xmlns:cc="http://creativecommons.org/ns#"
   xmlns:rdf="http://www.w3.org/1999/02/22-rdf-syntax-ns#"
   xmlns:svg="http://www.w3.org/2000/svg"
   xmlns="http://www.w3.org/2000/svg"
   xmlns:sodipodi="http://sodipodi.sourceforge.net/DTD/sodipodi-0.dtd"
   xmlns:inkscape="http://www.inkscape.org/namespaces/inkscape"
   width="47.896225mm"
   height="11.5346mm"
   viewBox="0 0 169.71103 40.870631"
   id="svg4593"
   version="1.1"
   inkscape:version="0.91 r13725"
   sodipodi:docname="logo_white.svg">
  <defs
     id="defs4595">
    <clipPath
       clipPathUnits="userSpaceOnUse"
       id="clipPath4231">
      <path
         d="m 0,283.465 283.465,0 L 283.465,0 0,0 0,283.465 Z"
         id="path4233"
         inkscape:connector-curvature="0" />
    </clipPath>
  </defs>
  <sodipodi:namedview
     id="base"
     pagecolor="#ffffff"
     bordercolor="#666666"
     borderopacity="1.0"
     inkscape:pageopacity="0"
     inkscape:pageshadow="2"
     inkscape:zoom="8"
     inkscape:cx="69.501657"
     inkscape:cy="30.406273"
     inkscape:document-units="px"
     inkscape:current-layer="layer1"
     showgrid="false"
     fit-margin-top="0"
     fit-margin-left="0"
     fit-margin-right="0"
     fit-margin-bottom="0"
     inkscape:window-width="1855"
     inkscape:window-height="1056"
     inkscape:window-x="65"
     inkscape:window-y="24"
     inkscape:window-maximized="1" />
  <metadata
     id="metadata4598">
    <rdf:RDF>
      <cc:Work
         rdf:about="">
        <dc:format>image/svg+xml</dc:format>
        <dc:type
           rdf:resource="http://purl.org/dc/dcmitype/StillImage" />
        <dc:title></dc:title>
      </cc:Work>
    </rdf:RDF>
  </metadata>
  <g
     inkscape:label="Layer 1"
     inkscape:groupmode="layer"
     id="layer1"
     transform="translate(-267.09044,-441.69562)">
    <g
       style="fill:#ffffff;fill-opacity:1;stroke:none;stroke-width:0.49919992;stroke-miterlimit:4;stroke-dasharray:none;stroke-opacity:1"
       transform="matrix(1.2500002,0,0,-1.2500002,317.06933,462.64874)"
       id="g4279">
      <path
         inkscape:connector-curvature="0"
         id="path4281"
         style="fill:#ffffff;fill-opacity:1;fill-rule:nonzero;stroke:none;stroke-width:0.49919992;stroke-miterlimit:4;stroke-dasharray:none;stroke-opacity:1"
         d="m 0,0 c -0.255,-1.146 -0.383,-2.242 -0.383,-3.168 0,-2.759 0.91,-5.7 4.276,-5.7 2.971,0 4.731,2.517 5.822,4.882 1.121,2.424 1.728,5.034 1.728,7.641 0,2.608 -1.001,5.034 -4.003,5.034 -0.23,0 -0.456,-0.015 -0.675,-0.043 L 6.76,9.805 c 0.126,0.004 0.251,0.006 0.377,0.006 5.155,0 9.097,-3.578 9.097,-8.703 0,-2.759 -1.213,-5.489 -3.183,-7.459 -2.123,-2.153 -4.519,-2.972 -7.399,-3.67 l -3.397,-1.031 1.516,0.061 c 2.639,0 4.367,-1.576 6.732,-1.576 2.79,0 3.427,2.061 4.003,2.061 0.212,0 0.393,-0.213 0.393,-0.424 0,-0.97 -1.242,-2.275 -1.879,-2.821 -1.577,-1.363 -3.487,-2.183 -5.58,-2.183 -3.608,0 -6.549,3.609 -8.732,3.609 -1.426,0 -2.305,-2.032 -4.186,-2.032 -0.606,0 -1.425,0.212 -1.425,0.91 0,1.426 2.275,1.759 3.367,1.94 2.365,0.455 4.64,1.244 7.004,1.79 -5.185,-0.364 -8.763,3.668 -8.763,8.581 0,0.39 0.023,0.774 0.069,1.149 L 0,0 Z" />
    </g>
    <g
       style="fill:#ffffff;fill-opacity:1;stroke:none;stroke-width:0.49919992;stroke-miterlimit:4;stroke-dasharray:none;stroke-opacity:1"
       transform="matrix(1.2500002,0,0,-1.2500002,345.85221,470.70174)"
       id="g4283">
      <path
         inkscape:connector-curvature="0"
         id="path4285"
         style="fill:#ffffff;fill-opacity:1;fill-rule:nonzero;stroke:none;stroke-width:0.49919992;stroke-miterlimit:4;stroke-dasharray:none;stroke-opacity:1"
         d="m 0,0 c -0.561,-0.712 -1,-1.273 -1.683,-1.88 -0.622,-0.546 -1.47,-1.198 -2.335,-1.198 -0.667,0 -1.091,0.515 -1.091,1.138 0,0.409 0.09,0.772 0.243,1.136 l 1.258,3.092 c 0.03,0.107 0.136,0.364 0.136,0.486 0,0.09 -0.076,0.198 -0.182,0.198 -0.501,0 -1.242,-1.168 -1.485,-1.168 -0.107,0 -0.197,0.092 -0.197,0.196 0,0.258 0.667,0.91 0.864,1.077 0.591,0.53 1.439,0.986 2.258,0.986 0.607,0 1.001,-0.304 1.001,-0.926 0,-0.378 -0.137,-0.772 -0.273,-1.121 l -1.046,-2.667 c -0.06,-0.184 -0.197,-0.562 -0.197,-0.744 0,-0.152 0.076,-0.273 0.227,-0.273 0.607,0 1.88,1.561 2.229,2.047 0.667,0.939 1.061,1.926 1.363,3.031 0.047,0.167 0.092,0.304 0.244,0.38 0.197,0.106 0.788,0.091 1.015,0.091 l 0.668,0 C 3.108,3.881 3.29,3.865 3.29,3.744 L 3.243,3.547 2.183,-0.045 c -0.091,-0.319 -0.44,-1.336 -0.44,-1.606 0,-0.092 0.076,-0.154 0.167,-0.154 0.486,0 1.137,1.199 1.425,1.199 0.091,0 0.167,-0.077 0.167,-0.167 0,-0.319 -0.698,-1.032 -0.925,-1.229 -0.576,-0.531 -1.349,-1.076 -2.153,-1.076 -0.515,0 -0.803,0.243 -0.803,0.773 0,0.591 0.166,1.213 0.334,1.775 L 0.167,0.212 0,0 Z" />
    </g>
    <g
       style="fill:#ffffff;fill-opacity:1;stroke:none;stroke-width:0.49919992;stroke-miterlimit:4;stroke-dasharray:none;stroke-opacity:1"
       transform="matrix(1.2500002,0,0,-1.2500002,359.13596,467.15799)"
       id="g4287">
      <path
         inkscape:connector-curvature="0"
         id="path4289"
         style="fill:#ffffff;fill-opacity:1;fill-rule:nonzero;stroke:none;stroke-width:0.49919992;stroke-miterlimit:4;stroke-dasharray:none;stroke-opacity:1"
         d="m 0,0 c 0,0.334 -0.289,0.622 -0.622,0.622 -0.985,0 -1.819,-1.289 -2.274,-2.047 -0.424,-0.728 -0.849,-1.652 -0.849,-2.502 0,-0.318 0.105,-0.636 0.455,-0.636 C -2.198,-4.563 0,-1.047 0,0 m 1.864,1.229 c 0.137,0 0.576,0.074 0.576,-0.168 0,-0.273 -0.743,-2.457 -0.879,-2.972 L 1.243,-3.093 C 1.167,-3.35 1,-3.896 1,-4.185 1,-4.29 1.045,-4.473 1.197,-4.473 c 0.47,0 1.047,1.198 1.289,1.198 0.105,0 0.152,-0.107 0.152,-0.198 0,-0.333 -0.576,-0.968 -0.789,-1.182 -0.606,-0.59 -1.485,-1.258 -2.365,-1.258 -0.455,0 -0.713,0.243 -0.713,0.728 0,0.727 0.35,1.712 0.486,2.47 -0.864,-1.258 -2.289,-3.198 -3.957,-3.198 -1.015,0 -1.349,0.955 -1.349,1.834 0,1.38 0.712,2.593 1.683,3.532 0.894,0.849 2.258,1.652 3.516,1.652 0.319,0 0.653,-0.059 0.941,-0.226 L 0.228,0.833 0.349,0.939 c 0.212,0.395 0.53,0.29 0.939,0.29 l 0.576,0 z" />
    </g>
    <g
       style="fill:#ffffff;fill-opacity:1;stroke:none;stroke-width:0.49919992;stroke-miterlimit:4;stroke-dasharray:none;stroke-opacity:1"
       transform="matrix(1.2500002,0,0,-1.2500002,369.82196,470.20974)"
       id="g4291">
      <path
         inkscape:connector-curvature="0"
         id="path4293"
         style="fill:#ffffff;fill-opacity:1;fill-rule:nonzero;stroke:none;stroke-width:0.49919992;stroke-miterlimit:4;stroke-dasharray:none;stroke-opacity:1"
         d="m 0,0 c 0.455,0.638 1.197,1.835 1.197,2.623 0,0.317 -0.257,0.546 -0.575,0.546 -0.818,0 -1.713,-1.047 -2.139,-1.667 -0.469,-0.714 -0.984,-1.82 -0.984,-2.684 0,-0.288 0.105,-0.713 0.454,-0.713 0.683,0 1.668,1.379 2.047,1.895 m 1.909,4.896 c 0.047,0.167 0.123,0.411 0.123,0.591 0,0.305 -0.197,0.334 -0.456,0.35 -0.197,0.015 -0.455,-0.016 -0.455,0.257 0,0.259 0.318,0.303 0.501,0.303 l 0.424,0 c 0.728,0 1.593,0.166 2.26,0.5 L 4.487,6.959 4.624,6.808 C 4.624,6.655 4.457,6.216 4.396,6.034 L 2.578,-0.121 2.441,-0.682 C 2.365,-0.955 2.168,-1.638 2.168,-1.91 c 0,-0.121 0.046,-0.242 0.182,-0.242 0.47,0 1,1.348 1.334,1.348 0.105,0 0.167,-0.091 0.167,-0.181 0,-0.319 -0.607,-1.06 -0.803,-1.274 -0.607,-0.681 -1.305,-1.213 -2.244,-1.213 -0.531,0 -0.85,0.228 -0.85,0.789 0,0.378 0.092,0.788 0.167,1.152 l 0.273,1.303 c -0.833,-1.151 -2.38,-3.244 -3.927,-3.244 -1.09,0 -1.454,1.076 -1.454,2.002 0,1.304 0.864,2.638 1.788,3.517 0.986,0.939 2.304,1.623 3.684,1.623 0.348,0 0.698,-0.092 0.986,-0.274 l 0.438,1.5 z" />
    </g>
    <g
       style="fill:#ffffff;fill-opacity:1;stroke:none;stroke-width:0.49919992;stroke-miterlimit:4;stroke-dasharray:none;stroke-opacity:1"
       transform="matrix(1.2500002,0,0,-1.2500002,378.76484,473.56312)"
       id="g4295">
      <path
         inkscape:connector-curvature="0"
         id="path4297"
         style="fill:#ffffff;fill-opacity:1;fill-rule:nonzero;stroke:none;stroke-width:0.49919992;stroke-miterlimit:4;stroke-dasharray:none;stroke-opacity:1"
         d="m 0,0 c -0.061,-0.137 -0.137,-0.38 -0.258,-0.471 -0.197,-0.166 -0.818,-0.121 -1.06,-0.121 l -0.41,0 c -0.136,0 -0.5,-0.045 -0.5,0.182 l 0.075,0.364 0.107,0.349 0.955,3.228 c 0.091,0.288 0.318,1.032 0.318,1.335 0,0.107 -0.044,0.242 -0.181,0.242 -0.53,0 -1.063,-1.152 -1.396,-1.152 -0.09,0 -0.182,0.076 -0.182,0.182 0,0.288 0.561,0.849 0.743,1.031 0.561,0.591 1.379,1.184 2.229,1.184 0.515,0 0.833,-0.259 0.833,-0.805 C 1.273,4.987 1.122,4.35 0.986,3.805 L 0.818,3.122 c 0.744,1.199 1.668,3.231 3.305,3.231 0.592,0 1.031,-0.487 1.031,-1.063 0,-0.667 -0.469,-1.394 -1.196,-1.394 -0.562,0 -0.743,0.302 -0.79,0.818 0,0.137 -0.029,0.288 -0.21,0.288 -0.502,0 -1.32,-1.455 -1.533,-1.834 L 0,0 Z" />
    </g>
    <g
       style="fill:#ffffff;fill-opacity:1;stroke:none;stroke-width:0.49919992;stroke-miterlimit:4;stroke-dasharray:none;stroke-opacity:1"
       transform="matrix(1.2500002,0,0,-1.2500002,388.75384,463.65337)"
       id="g4299">
      <path
         inkscape:connector-curvature="0"
         id="path4301"
         style="fill:#ffffff;fill-opacity:1;fill-rule:nonzero;stroke:none;stroke-width:0.49919992;stroke-miterlimit:4;stroke-dasharray:none;stroke-opacity:1"
         d="m 0,0 c 0,0.667 0.575,1.214 1.242,1.214 0.608,0 1.047,-0.41 1.047,-1.032 0,-0.697 -0.576,-1.213 -1.26,-1.213 C 0.408,-1.031 0,-0.621 0,0 m 0.121,-6.397 c -0.092,-0.227 -0.258,-0.607 -0.258,-0.848 0,-0.108 0.061,-0.214 0.182,-0.214 0.289,0 0.984,0.759 1.137,0.972 0.076,0.09 0.227,0.318 0.364,0.318 l 0.182,-0.168 c 0,-0.287 -0.607,-0.939 -0.789,-1.122 -0.682,-0.65 -1.545,-1.258 -2.517,-1.258 -0.546,0 -0.924,0.258 -0.924,0.833 0,0.79 0.696,2.443 1.031,3.214 0.091,0.243 0.682,1.608 0.682,1.88 0,0.106 -0.061,0.213 -0.183,0.213 -0.56,0 -1.287,-1.319 -1.56,-1.319 -0.106,0 -0.197,0.106 -0.197,0.198 0,0.272 0.652,0.924 0.833,1.106 0.636,0.576 1.425,1.017 2.304,1.017 0.577,0 1.016,-0.289 1.016,-0.895 0,-0.485 -0.5,-1.759 -0.681,-2.259 L 0.121,-6.397 Z" />
    </g>
    <g
       style="fill:#ffffff;fill-opacity:1;stroke:none;stroke-width:0.49919992;stroke-miterlimit:4;stroke-dasharray:none;stroke-opacity:1"
       transform="matrix(1.2500002,0,0,-1.2500002,395.66671,471.04349)"
       id="g4303">
      <path
         inkscape:connector-curvature="0"
         id="path4305"
         style="fill:#ffffff;fill-opacity:1;fill-rule:nonzero;stroke:none;stroke-width:0.49919992;stroke-miterlimit:4;stroke-dasharray:none;stroke-opacity:1"
         d="m 0,0 c -0.12,-0.378 -0.318,-0.939 -0.318,-1.35 0,-0.363 0.181,-0.681 0.591,-0.681 0.653,0 1.487,0.834 1.866,1.303 0.469,0.607 1.106,1.729 1.106,2.502 0,0.409 -0.121,0.607 -0.303,0.955 -0.167,0.303 -0.349,0.577 -0.349,0.94 0,0.485 0.349,0.803 0.818,0.803 0.652,0 0.865,-0.607 0.865,-1.152 0,-2.516 -2.336,-6.125 -5.08,-6.125 -0.984,0 -1.652,0.441 -1.652,1.455 0,0.379 0.167,0.804 0.274,1.168 l 0.864,2.608 c 0.045,0.166 0.152,0.47 0.152,0.637 0,0.075 -0.062,0.166 -0.152,0.166 -0.486,0 -1.198,-1.197 -1.425,-1.197 -0.092,0 -0.166,0.075 -0.166,0.182 0,0.304 0.696,0.984 0.893,1.168 0.561,0.499 1.38,0.955 2.153,0.955 0.576,0 0.88,-0.259 0.88,-0.85 C 1.017,3.122 0.88,2.652 0.773,2.306 L 0,0 Z" />
    </g>
    <g
       style="fill:#ffffff;fill-opacity:1;stroke:none;stroke-width:0.49919992;stroke-miterlimit:4;stroke-dasharray:none;stroke-opacity:1"
       transform="matrix(1.2500002,0,0,-1.2500002,405.57509,463.65337)"
       id="g4307">
      <path
         inkscape:connector-curvature="0"
         id="path4309"
         style="fill:#ffffff;fill-opacity:1;fill-rule:nonzero;stroke:none;stroke-width:0.49919992;stroke-miterlimit:4;stroke-dasharray:none;stroke-opacity:1"
         d="m 0,0 c 0,0.667 0.576,1.214 1.243,1.214 0.607,0 1.046,-0.41 1.046,-1.032 0,-0.697 -0.576,-1.213 -1.258,-1.213 C 0.409,-1.031 0,-0.621 0,0 m 0.122,-6.397 c -0.092,-0.227 -0.259,-0.607 -0.259,-0.848 0,-0.108 0.061,-0.214 0.183,-0.214 0.287,0 0.985,0.759 1.137,0.972 0.076,0.09 0.226,0.318 0.363,0.318 l 0.183,-0.168 c 0,-0.287 -0.607,-0.939 -0.79,-1.122 -0.68,-0.65 -1.545,-1.258 -2.515,-1.258 -0.546,0 -0.925,0.258 -0.925,0.833 0,0.79 0.697,2.443 1.03,3.214 0.092,0.243 0.683,1.608 0.683,1.88 0,0.106 -0.062,0.213 -0.182,0.213 -0.56,0 -1.289,-1.319 -1.561,-1.319 -0.106,0 -0.198,0.106 -0.198,0.198 0,0.272 0.652,0.924 0.834,1.106 0.637,0.576 1.424,1.017 2.304,1.017 0.576,0 1.016,-0.289 1.016,-0.895 0,-0.485 -0.499,-1.759 -0.682,-2.259 L 0.122,-6.397 Z" />
    </g>
    <g
       style="fill:#ffffff;fill-opacity:1;stroke:none;stroke-width:0.49919992;stroke-miterlimit:4;stroke-dasharray:none;stroke-opacity:1"
       transform="matrix(1.2500002,0,0,-1.2500002,415.54097,470.70174)"
       id="g4311">
      <path
         inkscape:connector-curvature="0"
         id="path4313"
         style="fill:#ffffff;fill-opacity:1;fill-rule:nonzero;stroke:none;stroke-width:0.49919992;stroke-miterlimit:4;stroke-dasharray:none;stroke-opacity:1"
         d="m 0,0 c -0.561,-0.712 -1.001,-1.273 -1.682,-1.88 -0.622,-0.546 -1.471,-1.198 -2.337,-1.198 -0.666,0 -1.09,0.515 -1.09,1.138 0,0.409 0.09,0.772 0.242,1.136 l 1.259,3.092 c 0.031,0.107 0.136,0.364 0.136,0.486 0,0.09 -0.076,0.198 -0.182,0.198 -0.5,0 -1.242,-1.168 -1.486,-1.168 -0.105,0 -0.197,0.092 -0.197,0.196 0,0.258 0.668,0.91 0.864,1.077 0.591,0.53 1.441,0.986 2.26,0.986 0.607,0 1,-0.304 1,-0.926 0,-0.378 -0.136,-0.772 -0.272,-1.121 l -1.046,-2.667 c -0.062,-0.184 -0.198,-0.562 -0.198,-0.744 0,-0.152 0.075,-0.273 0.227,-0.273 0.606,0 1.88,1.561 2.23,2.047 0.667,0.939 1.06,1.926 1.365,3.031 0.044,0.167 0.09,0.304 0.242,0.38 0.196,0.106 0.787,0.091 1.015,0.091 l 0.667,0 c 0.091,0 0.272,-0.016 0.272,-0.137 L 3.243,3.547 2.183,-0.045 c -0.09,-0.319 -0.44,-1.336 -0.44,-1.606 0,-0.092 0.076,-0.154 0.167,-0.154 0.485,0 1.137,1.199 1.425,1.199 0.092,0 0.167,-0.077 0.167,-0.167 0,-0.319 -0.697,-1.032 -0.926,-1.229 -0.575,-0.531 -1.348,-1.076 -2.152,-1.076 -0.515,0 -0.804,0.243 -0.804,0.773 0,0.591 0.168,1.213 0.334,1.775 L 0.166,0.212 0,0 Z" />
    </g>
    <g
       style="fill:#ffffff;fill-opacity:1;stroke:none;stroke-width:0.49919992;stroke-miterlimit:4;stroke-dasharray:none;stroke-opacity:1"
       transform="matrix(1.2500002,0,0,-1.2500002,435.00147,471.81987)"
       id="g4315">
      <path
         inkscape:connector-curvature="0"
         id="path4317"
         style="fill:#ffffff;fill-opacity:1;fill-rule:nonzero;stroke:none;stroke-width:0.49919992;stroke-miterlimit:4;stroke-dasharray:none;stroke-opacity:1"
         d="m 0,0 c -0.06,-0.167 -0.242,-0.606 -0.242,-0.789 0,-0.121 0.076,-0.196 0.197,-0.196 0.47,0 1.092,1.302 1.334,1.302 0.091,0 0.151,-0.089 0.151,-0.181 0,-0.364 -0.605,-1.062 -0.848,-1.319 -0.577,-0.591 -1.183,-1.001 -2.031,-1.001 -0.592,0 -1.047,0.288 -1.047,0.925 0,0.743 0.409,1.743 0.667,2.455 0.168,0.41 0.864,2.169 0.864,2.518 0,0.105 -0.045,0.227 -0.167,0.227 -0.561,0 -1.621,-1.681 -1.863,-2.107 -0.441,-0.788 -1.335,-2.531 -1.578,-3.381 -0.152,-0.484 -0.363,-0.439 -0.834,-0.439 l -0.622,0 c -0.12,0 -0.728,-0.061 -0.728,0.136 l 0.092,0.364 0.653,2.199 c 0.182,0.606 0.697,2.5 0.697,3.016 0,0.121 -0.03,0.302 -0.182,0.302 -0.532,0 -1.593,-1.908 -1.82,-2.333 L -8.55,-1.153 c -0.046,-0.165 -0.182,-0.56 -0.273,-0.712 -0.106,-0.152 -0.546,-0.121 -0.698,-0.121 l -0.515,0 c -0.137,0 -0.833,-0.077 -0.833,0.197 0,0.105 0.09,0.363 0.121,0.471 l 0.955,3.244 c 0.091,0.303 0.409,1.424 0.409,1.697 0,0.075 -0.014,0.182 -0.106,0.182 -0.274,0 -1.153,-1.183 -1.379,-1.183 -0.107,0 -0.168,0.121 -0.168,0.213 0,0.317 0.516,0.772 0.728,0.97 0.592,0.576 1.395,1.153 2.26,1.153 0.486,0 0.819,-0.259 0.819,-0.774 0,-0.365 -0.183,-1.121 -0.274,-1.517 L -7.685,1.971 c 0.742,1.318 1.666,2.987 3.395,2.987 0.803,0 1.017,-0.425 1.017,-1.168 0,-0.667 -0.274,-1.561 -0.411,-2.244 0.758,1.381 2.033,3.412 3.821,3.412 0.592,0 1.136,-0.229 1.136,-0.911 0,-0.561 -0.242,-1.182 -0.438,-1.714 L 0,0 Z" />
    </g>
    <g
       style="fill:#ffffff;fill-opacity:1;stroke:none;stroke-width:0.49919992;stroke-miterlimit:4;stroke-dasharray:none;stroke-opacity:1"
       transform="matrix(1.2500002,0,0,-1.2500002,309.59308,448.24324)"
       id="g4319">
      <path
         inkscape:connector-curvature="0"
         id="path4321"
         style="fill:#ffffff;fill-opacity:1;fill-rule:nonzero;stroke:none;stroke-width:0.49919992;stroke-miterlimit:4;stroke-dasharray:none;stroke-opacity:1"
         d="m 0,0 -3.813,0 0,5.17 3.76,0 0,-0.947 -2.471,0 0,-1.085 2.357,0 0,-0.948 -2.357,0 0,-1.243 L 0,0.947 0,0 Z" />
    </g>
    <g
       style="fill:#ffffff;fill-opacity:1;stroke:none;stroke-width:0.49919992;stroke-miterlimit:4;stroke-dasharray:none;stroke-opacity:1"
       transform="matrix(1.2500002,0,0,-1.2500002,321.3497,443.45811)"
       id="g4323">
      <path
         inkscape:connector-curvature="0"
         id="path4325"
         style="fill:#ffffff;fill-opacity:1;fill-rule:nonzero;stroke:none;stroke-width:0.49919992;stroke-miterlimit:4;stroke-dasharray:none;stroke-opacity:1"
         d="m 0,0 c -0.75,0.334 -1.198,0.462 -1.638,0.462 -0.462,0 -0.757,-0.166 -0.757,-0.425 0,-0.779 2.63,-0.56 2.63,-2.363 0,-0.994 -0.834,-1.571 -1.985,-1.571 -0.902,0 -1.35,0.237 -1.866,0.501 l 0,1.115 c 0.743,-0.492 1.199,-0.667 1.766,-0.667 0.494,0 0.759,0.175 0.759,0.476 0,0.85 -2.631,0.539 -2.631,2.396 0,0.894 0.773,1.486 1.972,1.486 0.576,0 1.098,-0.122 1.75,-0.402 L 0,0 Z" />
    </g>
    <g
       style="fill:#000000;fill-opacity:1;stroke:#ffffff;stroke-width:0.49919992;stroke-miterlimit:4;stroke-dasharray:none;stroke-opacity:1"
       transform="matrix(1.2500002,0,0,-1.2500002,313.2777,441.76136)"
       id="g4327">
      <path
         inkscape:connector-curvature="0"
         id="path4329"
         style="fill:#000000;fill-opacity:1;stroke:#ffffff;stroke-width:0.49919992;stroke-linecap:butt;stroke-linejoin:miter;stroke-miterlimit:4;stroke-dasharray:none;stroke-opacity:1"
         d="M 0,0 0,-5.133" />
    </g>
    <g
       style="fill:#000000;fill-opacity:1;stroke:#ffffff;stroke-width:0.49919992;stroke-miterlimit:4;stroke-dasharray:none;stroke-opacity:1"
       transform="matrix(1.2500002,0,0,-1.2500002,313.2777,453.67174)"
       id="g4331">
      <path
         inkscape:connector-curvature="0"
         id="path4333"
         style="fill:#000000;fill-opacity:1;stroke:#ffffff;stroke-width:0.49919992;stroke-linecap:butt;stroke-linejoin:miter;stroke-miterlimit:4;stroke-dasharray:none;stroke-opacity:1"
         d="M 0,0 0,-5.16" />
    </g>
    <g
       style="fill-opacity:1;stroke:#ffffff;stroke-width:0.49919992;stroke-miterlimit:4;stroke-dasharray:none;stroke-opacity:1"
       transform="matrix(1.2500002,0,0,-1.2500002,303.73607,451.00686)"
       id="g4335">
      <path
         inkscape:connector-curvature="0"
         id="path4337"
         style="fill-opacity:1;stroke:#ffffff;stroke-width:0.49919992;stroke-linecap:butt;stroke-linejoin:miter;stroke-miterlimit:4;stroke-dasharray:none;stroke-opacity:1"
         d="M 0,0 5.475,0" />
    </g>
    <g
       style="fill:#000000;fill-opacity:1;stroke:#ffffff;stroke-width:0.49919992;stroke-miterlimit:4;stroke-dasharray:none;stroke-opacity:1"
       transform="matrix(1.2500002,0,0,-1.2500002,315.8772,451.00686)"
       id="g4339">
      <path
         inkscape:connector-curvature="0"
         id="path4341"
         style="fill:#000000;fill-opacity:1;stroke:#ffffff;stroke-width:0.49919992;stroke-linecap:butt;stroke-linejoin:miter;stroke-miterlimit:4;stroke-dasharray:none;stroke-opacity:1"
         d="M 0,0 5.107,0" />
    </g>
    <g
       style="fill:#ffffff;fill-opacity:1;stroke:none;stroke-width:0.49919992;stroke-miterlimit:4;stroke-dasharray:none;stroke-opacity:1"
       transform="matrix(1.2500002,0,0,-1.2500002,309.25183,453.65949)"
       id="g4343">
      <path
         inkscape:connector-curvature="0"
         id="path4345"
         style="fill:#ffffff;fill-opacity:1;fill-rule:nonzero;stroke:none;stroke-width:0.49919992;stroke-miterlimit:4;stroke-dasharray:none;stroke-opacity:1"
         d="m 0,0 1.122,0 0,-5.17 -1.289,0 0,3.229 -1.395,-1.621 -0.196,0 -1.396,1.621 0,-3.229 -1.288,0 0,5.17 1.122,0 1.66,-1.918 L 0,0 Z" />
    </g>
    <g
       style="fill:#ffffff;fill-opacity:1;stroke:none;stroke-width:0.49919992;stroke-miterlimit:4;stroke-dasharray:none;stroke-opacity:1"
       transform="matrix(1.2500002,0,0,-1.2500002,322.20108,455.51624)"
       id="g4347">
      <path
         inkscape:connector-curvature="0"
         id="path4349"
         style="fill:#ffffff;fill-opacity:1;fill-rule:nonzero;stroke:none;stroke-width:0.49919992;stroke-miterlimit:4;stroke-dasharray:none;stroke-opacity:1"
         d="m 0,0 c -0.659,0.318 -1.296,0.478 -1.933,0.478 -1.402,0 -1.895,-0.865 -1.895,-1.63 0,-0.917 0.72,-1.524 1.789,-1.524 0.319,0 0.478,0.03 0.857,0.182 l 0,0.606 -0.751,0 0,0.949 2.039,0 0,-2.116 c -0.387,-0.402 -1.341,-0.697 -2.175,-0.697 -1.804,0 -3.085,1.099 -3.085,2.645 0,1.578 1.274,2.66 3.115,2.66 0.773,0 1.523,-0.174 2.039,-0.424 L 0,0 Z" />
    </g>
    <g
       style="fill:#ffffff;fill-opacity:1;stroke:none;stroke-width:0.49919992;stroke-miterlimit:4;stroke-dasharray:none;stroke-opacity:1"
       transform="matrix(1.2500002,0,0,-1.2500002,269.20794,444.65686)"
       id="g4351">
      <path
         inkscape:connector-curvature="0"
         id="path4353"
         style="fill:#ffffff;fill-opacity:1;fill-rule:nonzero;stroke:none;stroke-width:0.49919992;stroke-miterlimit:4;stroke-dasharray:none;stroke-opacity:1"
         d="m 0,0 -1.694,0 0,2.297 1.671,0 0,-0.422 -1.099,0 0,-0.48 1.048,0 0,-0.421 -1.048,0 0,-0.553 L 0,0.421 0,0 Z" />
    </g>
    <path
       inkscape:connector-curvature="0"
       id="path4355"
       style="fill:#ffffff;fill-opacity:1;fill-rule:nonzero;stroke:none;stroke-width:0.624;stroke-miterlimit:4;stroke-dasharray:none;stroke-opacity:1"
       d="m 270.78894,444.65724 -0.715,0 0,-2.87125 0.715,0 0,2.87125 z" />
    <g
       style="fill:#ffffff;fill-opacity:1;stroke:none;stroke-width:0.49919992;stroke-miterlimit:4;stroke-dasharray:none;stroke-opacity:1"
       transform="matrix(1.2500002,0,0,-1.2500002,274.65044,444.65686)"
       id="g4357">
      <path
         inkscape:connector-curvature="0"
         id="path4359"
         style="fill:#ffffff;fill-opacity:1;fill-rule:nonzero;stroke:none;stroke-width:0.49919992;stroke-miterlimit:4;stroke-dasharray:none;stroke-opacity:1"
         d="m 0,0 -0.481,0 -1.27,1.472 0,-1.472 -0.573,0 0,2.297 0.526,0 1.225,-1.404 0,1.404 L 0,2.297 0,0 Z" />
    </g>
    <g
       style="fill:#ffffff;fill-opacity:1;stroke:none;stroke-width:0.49919992;stroke-miterlimit:4;stroke-dasharray:none;stroke-opacity:1"
       transform="matrix(1.2500002,0,0,-1.2500002,276.30082,444.13074)"
       id="g4361">
      <path
         inkscape:connector-curvature="0"
         id="path4363"
         style="fill:#ffffff;fill-opacity:1;fill-rule:nonzero;stroke:none;stroke-width:0.49919992;stroke-miterlimit:4;stroke-dasharray:none;stroke-opacity:1"
         d="m 0,0 0.374,0 c 0.576,0 0.747,0.391 0.747,0.727 0,0.394 -0.212,0.727 -0.754,0.727 L 0,1.454 0,0 Z m 0.441,1.876 c 0.839,0 1.27,-0.522 1.27,-1.152 0,-0.661 -0.418,-1.145 -1.334,-1.145 l -0.95,0 0,2.297 1.014,0 z" />
    </g>
    <g
       style="fill:#ffffff;fill-opacity:1;stroke:none;stroke-width:0.49919992;stroke-miterlimit:4;stroke-dasharray:none;stroke-opacity:1"
       transform="matrix(1.2500002,0,0,-1.2500002,282.12545,444.65686)"
       id="g4365">
      <path
         inkscape:connector-curvature="0"
         id="path4367"
         style="fill:#ffffff;fill-opacity:1;fill-rule:nonzero;stroke:none;stroke-width:0.49919992;stroke-miterlimit:4;stroke-dasharray:none;stroke-opacity:1"
         d="m 0,0 -0.573,0 0,0.93 -1.145,0 0,-0.93 -0.572,0 0,2.297 0.572,0 0,-0.922 1.145,0 0,0.922 L 0,2.297 0,0 Z" />
    </g>
    <g
       style="fill:#ffffff;fill-opacity:1;stroke:none;stroke-width:0.49919992;stroke-miterlimit:4;stroke-dasharray:none;stroke-opacity:1"
       transform="matrix(1.2500002,0,0,-1.2500002,284.5827,442.34599)"
       id="g4369">
      <path
         inkscape:connector-curvature="0"
         id="path4371"
         style="fill:#ffffff;fill-opacity:1;fill-rule:nonzero;stroke:none;stroke-width:0.49919992;stroke-miterlimit:4;stroke-dasharray:none;stroke-opacity:1"
         d="m 0,0 c -0.438,0 -0.728,-0.279 -0.728,-0.701 0,-0.42 0.29,-0.7 0.728,-0.7 0.434,0 0.724,0.28 0.724,0.7 C 0.724,-0.279 0.434,0 0,0 m 0,-1.879 c -0.842,0 -1.317,0.593 -1.317,1.178 0,0.556 0.451,1.18 1.317,1.18 0.865,0 1.313,-0.627 1.313,-1.18 C 1.313,-1.29 0.825,-1.879 0,-1.879" />
    </g>
    <g
       style="fill:#ffffff;fill-opacity:1;stroke:none;stroke-width:0.49919992;stroke-miterlimit:4;stroke-dasharray:none;stroke-opacity:1"
       transform="matrix(1.2500002,0,0,-1.2500002,288.41632,444.69461)"
       id="g4373">
      <path
         inkscape:connector-curvature="0"
         id="path4375"
         style="fill:#ffffff;fill-opacity:1;fill-rule:nonzero;stroke:none;stroke-width:0.49919992;stroke-miterlimit:4;stroke-dasharray:none;stroke-opacity:1"
         d="m 0,0 -0.249,0 -1.111,2.327 0.623,0 0.606,-1.309 0.576,1.309 0.616,0 L 0,0 Z" />
    </g>
    <g
       style="fill:#ffffff;fill-opacity:1;stroke:none;stroke-width:0.49919992;stroke-miterlimit:4;stroke-dasharray:none;stroke-opacity:1"
       transform="matrix(1.2500002,0,0,-1.2500002,292.48245,444.65686)"
       id="g4377">
      <path
         inkscape:connector-curvature="0"
         id="path4379"
         style="fill:#ffffff;fill-opacity:1;fill-rule:nonzero;stroke:none;stroke-width:0.49919992;stroke-miterlimit:4;stroke-dasharray:none;stroke-opacity:1"
         d="m 0,0 -1.693,0 0,2.297 1.669,0 0,-0.422 -1.097,0 0,-0.48 1.047,0 0,-0.421 -1.047,0 0,-0.553 L 0,0.421 0,0 Z" />
    </g>
    <g
       style="fill:#ffffff;fill-opacity:1;stroke:none;stroke-width:0.49919992;stroke-miterlimit:4;stroke-dasharray:none;stroke-opacity:1"
       transform="matrix(1.2500002,0,0,-1.2500002,296.2312,444.65686)"
       id="g4381">
      <path
         inkscape:connector-curvature="0"
         id="path4383"
         style="fill:#ffffff;fill-opacity:1;fill-rule:nonzero;stroke:none;stroke-width:0.49919992;stroke-miterlimit:4;stroke-dasharray:none;stroke-opacity:1"
         d="m 0,0 -0.481,0 -1.269,1.472 0,-1.472 -0.573,0 0,2.297 0.525,0 1.226,-1.404 0,1.404 L 0,2.297 0,0 Z" />
    </g>
    <g
       style="fill:#ffffff;fill-opacity:1;stroke:none;stroke-width:0.49919992;stroke-miterlimit:4;stroke-dasharray:none;stroke-opacity:1"
       transform="matrix(1.2500002,0,0,-1.2500002,299.0987,442.53161)"
       id="g4385">
      <path
         inkscape:connector-curvature="0"
         id="path4387"
         style="fill:#ffffff;fill-opacity:1;fill-rule:nonzero;stroke:none;stroke-width:0.49919992;stroke-miterlimit:4;stroke-dasharray:none;stroke-opacity:1"
         d="m 0,0 c -0.334,0.148 -0.533,0.206 -0.728,0.206 -0.206,0 -0.336,-0.074 -0.336,-0.188 0,-0.347 1.168,-0.249 1.168,-1.051 0,-0.442 -0.371,-0.697 -0.882,-0.697 -0.402,0 -0.6,0.103 -0.829,0.221 l 0,0.496 c 0.33,-0.219 0.532,-0.297 0.785,-0.297 0.218,0 0.336,0.078 0.336,0.213 0,0.377 -1.168,0.24 -1.168,1.064 0,0.397 0.343,0.661 0.876,0.661 0.256,0 0.487,-0.055 0.778,-0.18 L 0,0 Z" />
    </g>
    <g
       style="fill:#ffffff;fill-opacity:1;stroke:none;stroke-width:0.49919992;stroke-miterlimit:4;stroke-dasharray:none;stroke-opacity:1"
       transform="matrix(1.2500002,0,0,-1.2500002,271.40219,447.66336)"
       id="g4389">
      <path
         inkscape:connector-curvature="0"
         id="path4391"
         style="fill:#ffffff;fill-opacity:1;fill-rule:nonzero;stroke:none;stroke-width:0.49919992;stroke-miterlimit:4;stroke-dasharray:none;stroke-opacity:1"
         d="m 0,0 c -0.333,0.147 -0.532,0.205 -0.727,0.205 -0.206,0 -0.337,-0.074 -0.337,-0.187 0,-0.348 1.168,-0.25 1.168,-1.051 0,-0.443 -0.371,-0.698 -0.882,-0.698 -0.401,0 -0.6,0.105 -0.828,0.222 l 0,0.495 c 0.33,-0.218 0.531,-0.296 0.784,-0.296 0.219,0 0.338,0.078 0.338,0.212 0,0.377 -1.169,0.239 -1.169,1.064 0,0.397 0.343,0.661 0.875,0.661 0.257,0 0.488,-0.055 0.778,-0.179 L 0,0 Z" />
    </g>
    <g
       style="fill:#ffffff;fill-opacity:1;stroke:none;stroke-width:0.49919992;stroke-miterlimit:4;stroke-dasharray:none;stroke-opacity:1"
       transform="matrix(1.2500002,0,0,-1.2500002,274.90257,447.44486)"
       id="g4393">
      <path
         inkscape:connector-curvature="0"
         id="path4395"
         style="fill:#ffffff;fill-opacity:1;fill-rule:nonzero;stroke:none;stroke-width:0.49919992;stroke-miterlimit:4;stroke-dasharray:none;stroke-opacity:1"
         d="m 0,0 -0.832,0 0,-1.875 -0.572,0 0,1.875 -0.832,0 0,0.421 L 0,0.421 0,0 Z" />
    </g>
    <g
       style="fill:#ffffff;fill-opacity:1;stroke:none;stroke-width:0.49919992;stroke-miterlimit:4;stroke-dasharray:none;stroke-opacity:1"
       transform="matrix(1.2500002,0,0,-1.2500002,278.4767,446.91874)"
       id="g4397">
      <path
         inkscape:connector-curvature="0"
         id="path4399"
         style="fill:#ffffff;fill-opacity:1;fill-rule:nonzero;stroke:none;stroke-width:0.49919992;stroke-miterlimit:4;stroke-dasharray:none;stroke-opacity:1"
         d="m 0,0 0,-1.303 c 0,-0.761 -0.519,-1.024 -1.149,-1.024 -0.666,0 -1.148,0.31 -1.148,1.019 l 0,1.308 0.572,0 0,-1.32 c 0,-0.329 0.24,-0.529 0.57,-0.529 0.303,0 0.582,0.159 0.582,0.57 L -0.573,0 0,0 Z" />
    </g>
    <g
       style="fill:#ffffff;fill-opacity:1;stroke:none;stroke-width:0.49919992;stroke-miterlimit:4;stroke-dasharray:none;stroke-opacity:1"
       transform="matrix(1.2500002,0,0,-1.2500002,280.10032,449.26249)"
       id="g4401">
      <path
         inkscape:connector-curvature="0"
         id="path4403"
         style="fill:#ffffff;fill-opacity:1;fill-rule:nonzero;stroke:none;stroke-width:0.49919992;stroke-miterlimit:4;stroke-dasharray:none;stroke-opacity:1"
         d="m 0,0 0.374,0 c 0.575,0 0.748,0.39 0.748,0.727 0,0.394 -0.213,0.727 -0.755,0.727 L 0,1.454 0,0 Z m 0.441,1.875 c 0.838,0 1.27,-0.522 1.27,-1.151 0,-0.661 -0.418,-1.145 -1.334,-1.145 l -0.949,0 0,2.296 1.013,0 z" />
    </g>
    <g
       style="fill:#ffffff;fill-opacity:1;stroke:none;stroke-width:0.49919992;stroke-miterlimit:4;stroke-dasharray:none;stroke-opacity:1"
       transform="matrix(1.2500002,0,0,-1.2500002,285.18382,449.78861)"
       id="g4405">
      <path
         inkscape:connector-curvature="0"
         id="path4407"
         style="fill:#ffffff;fill-opacity:1;fill-rule:nonzero;stroke:none;stroke-width:0.49919992;stroke-miterlimit:4;stroke-dasharray:none;stroke-opacity:1"
         d="m 0,0 -1.693,0 0,2.296 1.67,0 0,-0.421 -1.098,0 0,-0.481 1.047,0 0,-0.422 -1.047,0 0,-0.551 L 0,0.421 0,0 Z" />
    </g>
    <g
       style="fill:#ffffff;fill-opacity:1;stroke:none;stroke-width:0.49919992;stroke-miterlimit:4;stroke-dasharray:none;stroke-opacity:1"
       transform="matrix(1.2500002,0,0,-1.2500002,288.93332,449.78861)"
       id="g4409">
      <path
         inkscape:connector-curvature="0"
         id="path4411"
         style="fill:#ffffff;fill-opacity:1;fill-rule:nonzero;stroke:none;stroke-width:0.49919992;stroke-miterlimit:4;stroke-dasharray:none;stroke-opacity:1"
         d="m 0,0 -0.482,0 -1.269,1.471 0,-1.471 -0.573,0 0,2.296 0.526,0 1.225,-1.404 0,1.404 L 0,2.296 0,0 Z" />
    </g>
    <g
       style="fill:#ffffff;fill-opacity:1;stroke:none;stroke-width:0.49919992;stroke-miterlimit:4;stroke-dasharray:none;stroke-opacity:1"
       transform="matrix(1.2500002,0,0,-1.2500002,292.4642,447.44486)"
       id="g4413">
      <path
         inkscape:connector-curvature="0"
         id="path4415"
         style="fill:#ffffff;fill-opacity:1;fill-rule:nonzero;stroke:none;stroke-width:0.49919992;stroke-miterlimit:4;stroke-dasharray:none;stroke-opacity:1"
         d="m 0,0 -0.832,0 0,-1.875 -0.572,0 0,1.875 -0.831,0 0,0.421 L 0,0.421 0,0 Z" />
    </g>
    <g
       style="fill:#ffffff;fill-opacity:1;stroke:none;stroke-width:0.49919992;stroke-miterlimit:4;stroke-dasharray:none;stroke-opacity:1"
       transform="matrix(1.2500002,0,0,-1.2500002,295.31757,449.78861)"
       id="g4417">
      <path
         inkscape:connector-curvature="0"
         id="path4419"
         style="fill:#ffffff;fill-opacity:1;fill-rule:nonzero;stroke:none;stroke-width:0.49919992;stroke-miterlimit:4;stroke-dasharray:none;stroke-opacity:1"
         d="m 0,0 -1.693,0 0,2.296 1.67,0 0,-0.421 -1.098,0 0,-0.481 1.047,0 0,-0.422 -1.047,0 0,-0.551 L 0,0.421 0,0 Z" />
    </g>
    <g
       style="fill:#ffffff;fill-opacity:1;stroke:none;stroke-width:0.49919992;stroke-miterlimit:4;stroke-dasharray:none;stroke-opacity:1"
       transform="matrix(1.2500002,0,0,-1.2500002,299.06695,449.78861)"
       id="g4421">
      <path
         inkscape:connector-curvature="0"
         id="path4423"
         style="fill:#ffffff;fill-opacity:1;fill-rule:nonzero;stroke:none;stroke-width:0.49919992;stroke-miterlimit:4;stroke-dasharray:none;stroke-opacity:1"
         d="m 0,0 -0.482,0 -1.269,1.471 0,-1.471 -0.572,0 0,2.296 0.525,0 1.225,-1.404 0,1.404 L 0,2.296 0,0 Z" />
    </g>
    <g
       style="fill:#ffffff;fill-opacity:1;stroke:none;stroke-width:0.49919992;stroke-miterlimit:4;stroke-dasharray:none;stroke-opacity:1"
       transform="matrix(1.2500002,0,0,-1.2500002,283.48157,452.05187)"
       id="g4425">
      <path
         inkscape:connector-curvature="0"
         id="path4427"
         style="fill:#ffffff;fill-opacity:1;fill-rule:nonzero;stroke:none;stroke-width:0.49919992;stroke-miterlimit:4;stroke-dasharray:none;stroke-opacity:1"
         d="m 0,0 0.499,0 0,-2.297 -0.573,0 0,1.435 -0.619,-0.721 -0.088,0 -0.62,0.721 0,-1.435 -0.572,0 0,2.297 0.497,0 0.738,-0.852 L 0,0 Z" />
    </g>
    <g
       style="fill:#ffffff;fill-opacity:1;stroke:none;stroke-width:0.49919992;stroke-miterlimit:4;stroke-dasharray:none;stroke-opacity:1"
       transform="matrix(1.2500002,0,0,-1.2500002,287.8792,452.05187)"
       id="g4429">
      <path
         inkscape:connector-curvature="0"
         id="path4431"
         style="fill:#ffffff;fill-opacity:1;fill-rule:nonzero;stroke:none;stroke-width:0.49919992;stroke-miterlimit:4;stroke-dasharray:none;stroke-opacity:1"
         d="m 0,0 0,-1.303 c 0,-0.761 -0.519,-1.024 -1.148,-1.024 -0.667,0 -1.149,0.31 -1.149,1.019 l 0,1.308 0.573,0 0,-1.32 c 0,-0.33 0.239,-0.529 0.569,-0.529 0.303,0 0.583,0.159 0.583,0.57 L -0.572,0 0,0 Z" />
    </g>
    <g
       style="fill:#ffffff;fill-opacity:1;stroke:none;stroke-width:0.49919992;stroke-miterlimit:4;stroke-dasharray:none;stroke-opacity:1"
       transform="matrix(1.2500002,0,0,-1.2500002,289.7102,454.39687)"
       id="g4433">
      <path
         inkscape:connector-curvature="0"
         id="path4435"
         style="fill:#ffffff;fill-opacity:1;fill-rule:nonzero;stroke:none;stroke-width:0.49919992;stroke-miterlimit:4;stroke-dasharray:none;stroke-opacity:1"
         d="m 0,0 1.252,0 0,-0.421 -2.229,0 1.263,1.877 -1.175,0 0,0.42 2.141,0 L 0,0 Z" />
    </g>
    <path
       inkscape:connector-curvature="0"
       id="path4437"
       style="fill:#ffffff;fill-opacity:1;fill-rule:nonzero;stroke:none;stroke-width:0.624;stroke-miterlimit:4;stroke-dasharray:none;stroke-opacity:1"
       d="m 292.7652,454.92349 -0.71625,0 0,-2.87125 0.71625,0 0,2.87125 z" />
    <g
       style="fill:#ffffff;fill-opacity:1;stroke:none;stroke-width:0.49919992;stroke-miterlimit:4;stroke-dasharray:none;stroke-opacity:1"
       transform="matrix(1.2500002,0,0,-1.2500002,295.84495,454.92299)"
       id="g4439">
      <path
         inkscape:connector-curvature="0"
         id="path4441"
         style="fill:#ffffff;fill-opacity:1;fill-rule:nonzero;stroke:none;stroke-width:0.49919992;stroke-miterlimit:4;stroke-dasharray:none;stroke-opacity:1"
         d="m 0,0 -1.695,0 0,2.297 1.671,0 0,-0.42 -1.098,0 0,-0.482 1.048,0 0,-0.421 -1.048,0 0,-0.553 L 0,0.421 0,0 Z" />
    </g>
    <g
       style="fill:#ffffff;fill-opacity:1;stroke:none;stroke-width:0.49919992;stroke-miterlimit:4;stroke-dasharray:none;stroke-opacity:1"
       transform="matrix(1.2500002,0,0,-1.2500002,298.16245,453.39949)"
       id="g4443">
      <path
         inkscape:connector-curvature="0"
         id="path4445"
         style="fill:#ffffff;fill-opacity:1;fill-rule:nonzero;stroke:none;stroke-width:0.49919992;stroke-miterlimit:4;stroke-dasharray:none;stroke-opacity:1"
         d="m 0,0 1.014,-1.219 -0.718,0 -0.909,1.078 0,-1.078 -0.573,0 0,2.297 0.573,0 0,-1.041 0.007,0 0.724,1.041 0.629,0 L 0,0 Z" />
    </g>
    <g
       style="fill:#ffffff;fill-opacity:1;stroke:none;stroke-width:0.49919992;stroke-miterlimit:4;stroke-dasharray:none;stroke-opacity:1"
       transform="matrix(1.2500002,0,0,-1.2500002,270.17232,458.00887)"
       id="g4447">
      <path
         inkscape:connector-curvature="0"
         id="path4449"
         style="fill:#ffffff;fill-opacity:1;fill-rule:nonzero;stroke:none;stroke-width:0.49919992;stroke-miterlimit:4;stroke-dasharray:none;stroke-opacity:1"
         d="m 0,0 c -0.293,0.141 -0.576,0.212 -0.859,0.212 -0.623,0 -0.841,-0.385 -0.841,-0.725 0,-0.407 0.319,-0.676 0.794,-0.676 0.142,0 0.213,0.013 0.38,0.081 l 0,0.269 -0.333,0 0,0.42 0.905,0 0,-0.939 c -0.171,-0.178 -0.595,-0.309 -0.965,-0.309 -0.802,0 -1.371,0.488 -1.371,1.175 0,0.7 0.565,1.181 1.384,1.181 0.343,0 0.677,-0.077 0.906,-0.188 L 0,0 Z" />
    </g>
    <g
       style="fill:#ffffff;fill-opacity:1;stroke:none;stroke-width:0.49919992;stroke-miterlimit:4;stroke-dasharray:none;stroke-opacity:1"
       transform="matrix(1.2500002,0,0,-1.2500002,273.27344,460.05599)"
       id="g4451">
      <path
         inkscape:connector-curvature="0"
         id="path4453"
         style="fill:#ffffff;fill-opacity:1;fill-rule:nonzero;stroke:none;stroke-width:0.49919992;stroke-miterlimit:4;stroke-dasharray:none;stroke-opacity:1"
         d="m 0,0 -1.693,0 0,2.296 1.67,0 0,-0.419 -1.098,0 0,-0.482 1.047,0 0,-0.421 -1.047,0 0,-0.552 L 0,0.422 0,0 Z" />
    </g>
    <g
       style="fill:#ffffff;fill-opacity:1;stroke:none;stroke-width:0.49919992;stroke-miterlimit:4;stroke-dasharray:none;stroke-opacity:1"
       transform="matrix(1.2500002,0,0,-1.2500002,275.03194,459.52862)"
       id="g4455">
      <path
         inkscape:connector-curvature="0"
         id="path4457"
         style="fill:#ffffff;fill-opacity:1;fill-rule:nonzero;stroke:none;stroke-width:0.49919992;stroke-miterlimit:4;stroke-dasharray:none;stroke-opacity:1"
         d="m 0,0 1.252,0 0,-0.422 -2.229,0 1.263,1.877 -1.175,0 0,0.419 2.141,0 L 0,0 Z" />
    </g>
    <g
       style="fill:#ffffff;fill-opacity:1;stroke:none;stroke-width:0.49919992;stroke-miterlimit:4;stroke-dasharray:none;stroke-opacity:1"
       transform="matrix(1.2500002,0,0,-1.2500002,279.4722,460.05599)"
       id="g4459">
      <path
         inkscape:connector-curvature="0"
         id="path4461"
         style="fill:#ffffff;fill-opacity:1;fill-rule:nonzero;stroke:none;stroke-width:0.49919992;stroke-miterlimit:4;stroke-dasharray:none;stroke-opacity:1"
         d="m 0,0 -1.694,0 0,2.296 1.671,0 0,-0.419 -1.099,0 0,-0.482 1.048,0 0,-0.421 -1.048,0 0,-0.552 L 0,0.422 0,0 Z" />
    </g>
    <g
       style="fill:#ffffff;fill-opacity:1;stroke:none;stroke-width:0.49919992;stroke-miterlimit:4;stroke-dasharray:none;stroke-opacity:1"
       transform="matrix(1.2500002,0,0,-1.2500002,282.50145,460.05599)"
       id="g4463">
      <path
         inkscape:connector-curvature="0"
         id="path4465"
         style="fill:#ffffff;fill-opacity:1;fill-rule:nonzero;stroke:none;stroke-width:0.49919992;stroke-miterlimit:4;stroke-dasharray:none;stroke-opacity:1"
         d="m 0,0 -1.751,0 0,2.296 0.572,0 0,-1.874 L 0,0.422 0,0 Z" />
    </g>
    <g
       style="fill:#ffffff;fill-opacity:1;stroke:none;stroke-width:0.49919992;stroke-miterlimit:4;stroke-dasharray:none;stroke-opacity:1"
       transform="matrix(1.2500002,0,0,-1.2500002,285.12345,457.92949)"
       id="g4467">
      <path
         inkscape:connector-curvature="0"
         id="path4469"
         style="fill:#ffffff;fill-opacity:1;fill-rule:nonzero;stroke:none;stroke-width:0.49919992;stroke-miterlimit:4;stroke-dasharray:none;stroke-opacity:1"
         d="m 0,0 c -0.334,0.148 -0.532,0.204 -0.728,0.204 -0.205,0 -0.336,-0.073 -0.336,-0.187 0,-0.348 1.168,-0.249 1.168,-1.051 0,-0.441 -0.37,-0.696 -0.882,-0.696 -0.401,0 -0.6,0.103 -0.828,0.221 l 0,0.494 c 0.33,-0.217 0.532,-0.296 0.784,-0.296 0.219,0 0.337,0.079 0.337,0.213 0,0.376 -1.169,0.24 -1.169,1.064 0,0.398 0.343,0.66 0.876,0.66 0.256,0 0.487,-0.054 0.778,-0.179 L 0,0 Z" />
    </g>
    <g
       style="fill:#ffffff;fill-opacity:1;stroke:none;stroke-width:0.49919992;stroke-miterlimit:4;stroke-dasharray:none;stroke-opacity:1"
       transform="matrix(1.2500002,0,0,-1.2500002,288.70745,459.80699)"
       id="g4471">
      <path
         inkscape:connector-curvature="0"
         id="path4473"
         style="fill:#ffffff;fill-opacity:1;fill-rule:nonzero;stroke:none;stroke-width:0.49919992;stroke-miterlimit:4;stroke-dasharray:none;stroke-opacity:1"
         d="m 0,0 c -0.32,-0.165 -0.562,-0.229 -0.902,-0.229 -0.892,0 -1.338,0.58 -1.338,1.171 0,0.614 0.503,1.186 1.381,1.186 0.32,0 0.607,-0.066 0.832,-0.202 l 0,-0.511 C -0.279,1.556 -0.536,1.65 -0.818,1.65 -1.307,1.65 -1.65,1.36 -1.65,0.953 c 0,-0.411 0.34,-0.704 0.818,-0.704 0.3,0 0.502,0.095 0.832,0.253 L 0,0 Z" />
    </g>
    <g
       style="fill:#ffffff;fill-opacity:1;stroke:none;stroke-width:0.49919992;stroke-miterlimit:4;stroke-dasharray:none;stroke-opacity:1"
       transform="matrix(1.2500002,0,0,-1.2500002,292.4367,460.05599)"
       id="g4475">
      <path
         inkscape:connector-curvature="0"
         id="path4477"
         style="fill:#ffffff;fill-opacity:1;fill-rule:nonzero;stroke:none;stroke-width:0.49919992;stroke-miterlimit:4;stroke-dasharray:none;stroke-opacity:1"
         d="m 0,0 -0.573,0 0,0.931 -1.145,0 0,-0.931 -0.572,0 0,2.296 0.572,0 0,-0.922 1.145,0 0,0.922 L 0,2.296 0,0 Z" />
    </g>
    <g
       style="fill:#ffffff;fill-opacity:1;stroke:none;stroke-width:0.49919992;stroke-miterlimit:4;stroke-dasharray:none;stroke-opacity:1"
       transform="matrix(1.2500002,0,0,-1.2500002,294.64557,457.87099)"
       id="g4479">
      <path
         inkscape:connector-curvature="0"
         id="path4481"
         style="fill:#ffffff;fill-opacity:1;fill-rule:nonzero;stroke:none;stroke-width:0.49919992;stroke-miterlimit:4;stroke-dasharray:none;stroke-opacity:1"
         d="m 0,0 -0.337,-0.892 0.708,0 L 0,0 Z m 1.344,-1.748 -0.616,0 -0.189,0.455 -1.027,0 -0.172,-0.455 -0.606,0 0.926,2.296 0.663,0 1.021,-2.296 z" />
    </g>
    <g
       style="fill:#ffffff;fill-opacity:1;stroke:none;stroke-width:0.49919992;stroke-miterlimit:4;stroke-dasharray:none;stroke-opacity:1"
       transform="matrix(1.2500002,0,0,-1.2500002,297.69607,458.37512)"
       id="g4483">
      <path
         inkscape:connector-curvature="0"
         id="path4485"
         style="fill:#ffffff;fill-opacity:1;fill-rule:nonzero;stroke:none;stroke-width:0.49919992;stroke-miterlimit:4;stroke-dasharray:none;stroke-opacity:1"
         d="m 0,0 0.266,0 c 0.263,0 0.358,0.094 0.358,0.265 0,0.196 -0.112,0.267 -0.422,0.267 L 0,0.532 0,0 Z m 0.451,0.951 c 0.526,0 0.761,-0.365 0.761,-0.679 0,-0.324 -0.229,-0.694 -0.757,-0.694 l -0.455,0 0,-0.923 -0.573,0 0,2.296 1.024,0 z" />
    </g>
  </g>
</svg>
