<?xml version="1.0" encoding="UTF-8" standalone="no"?>
<svg
   xmlns:dc="http://purl.org/dc/elements/1.1/"
   xmlns:cc="http://creativecommons.org/ns#"
   xmlns:rdf="http://www.w3.org/1999/02/22-rdf-syntax-ns#"
   xmlns:svg="http://www.w3.org/2000/svg"
   xmlns="http://www.w3.org/2000/svg"
   id="svg1016"
   version="1.1"
   viewBox="0 0 8.4665132 8.2577464"
   height="31.210773"
   width="31.999823">
  <defs
     id="defs1010" />
  <metadata
     id="metadata1013">
    <rdf:RDF>
      <cc:Work
         rdf:about="">
        <dc:format>image/svg+xml</dc:format>
        <dc:type
           rdf:resource="http://purl.org/dc/dcmitype/StillImage" />
        <dc:title></dc:title>
      </cc:Work>
    </rdf:RDF>
  </metadata>
  <g
     transform="translate(-77.409462,-90.275889)"
     id="layer1">
    <path
       id="path106"
       style="fill:#ffffff;fill-opacity:1;fill-rule:evenodd;stroke:none;stroke-width:0.0259883"
       d="m 81.64244,90.275889 c -2.337392,0 -4.232978,1.895326 -4.232978,4.233494 0,1.870377 1.212878,3.456963 2.8951,4.016751 0.211802,0.03898 0.288991,-0.09174 0.288991,-0.204009 0,-0.100575 -0.0037,-0.366694 -0.0059,-0.719875 -1.177533,0.255724 -1.425984,-0.567585 -1.425984,-0.567585 -0.192575,-0.489099 -0.470125,-0.619301 -0.470125,-0.619301 -0.384368,-0.262482 0.0291,-0.257284 0.0291,-0.257284 0.424907,0.02989 0.648407,0.436344 0.648407,0.436344 0.377613,0.646848 0.990933,0.459992 1.232106,0.351621 0.03845,-0.273397 0.147873,-0.459992 0.268717,-0.565765 -0.939998,-0.106812 -1.928331,-0.470128 -1.928331,-2.092318 0,-0.462072 0.165023,-0.840201 0.435825,-1.135948 -0.04368,-0.107072 -0.188935,-0.537698 0.04155,-1.120355 0,0 0.355262,-0.113829 1.164015,0.434003 0.337589,-0.09408 0.699871,-0.140856 1.059804,-0.142675 0.359682,0.0018 0.7217,0.0486 1.059804,0.142675 0.808237,-0.547832 1.162976,-0.434003 1.162976,-0.434003 0.231037,0.582657 0.08576,1.013283 0.04236,1.120355 0.271318,0.295747 0.435044,0.673876 0.435044,1.135948 0,1.626347 -0.989894,1.984206 -1.932743,2.08894 0.15177,0.130721 0.287171,0.389044 0.287171,0.783807 0,0.566025 -0.0052,1.022639 -0.0052,1.161416 0,0.11331 0.0764,0.245069 0.291068,0.203749 1.680926,-0.561088 2.892758,-2.146634 2.892758,-4.016491 0,-2.338168 -1.895586,-4.233494 -4.233751,-4.233494" />
  </g>
</svg>
